<svg id="圖層_1" data-name="圖層 1" xmlns="http://www.w3.org/2000/svg" viewBox="0 0 69.82 92.68"><defs><style>.cls-1{fill:#5d5d5d;}.cls-2{fill:#f0b77e;}</style></defs><title>logo2</title><path class="cls-1" d="M324.43,405.62s2.89,5.09,4.66,5.52-2.51.94-2.51.94-2.11-.75-3.69-6.49S324.43,405.62,324.43,405.62Z" transform="translate(-262.89 -374.84)"/><path class="cls-1" d="M306.32,403s-3.48,7.36-5.9,8.12,3.6,1.08,3.6,1.08,2.76-.69,4.46-9.39C310.07,394.64,306.32,403,306.32,403Z" transform="translate(-262.89 -374.84)"/><polygon class="cls-1" points="38.69 10.35 65.47 10.35 65.47 14.59 38.69 13.8 38.69 10.35"/><polygon class="cls-1" points="50.98 1.3 49.55 38.3 55.89 38.3 54.78 1.3 50.98 1.3"/><polygon class="cls-1" points="42.76 19.21 42.76 22.48 61.78 22.48 61 19.21 42.76 19.21"/><polygon class="cls-1" points="31.77 65.52 13.07 66.16 13.07 62.23 31.77 62.23 31.77 65.52"/><polygon class="cls-1" points="32.02 88.14 13.32 88.62 13.32 85.65 32.02 85.65 32.02 88.14"/><polygon class="cls-1" points="20.54 63.27 24.3 63.72 23.18 88.47 21.1 88.47 20.54 63.27"/><polygon class="cls-1" points="15.69 74.26 29.45 74.26 29.45 76.43 15.69 76.96 15.69 74.26"/><polygon class="cls-1" points="6.63 58.58 9.87 60.27 1.58 69.31 0 68.54 6.63 58.58"/><polygon class="cls-1" points="5.55 70.96 8.1 72.25 1.58 79.18 0.33 78.59 5.55 70.96"/><path class="cls-1" d="M263.22,436l2.76-2.21s8.69,6.52,5.78,26.5l-4.66-1.48S273.53,447.93,263.22,436Z" transform="translate(-262.89 -374.84)"/><polygon class="cls-1" points="26.35 11.73 4.25 12.35 4.25 8.5 26.35 8.5 26.35 11.73"/><polygon class="cls-1" points="6.18 11.47 6.18 23.34 10.04 23.34 10.04 9.14 6.18 8.5 6.18 11.47"/><polygon class="cls-1" points="20.91 11.47 20.91 23.34 24.76 23.34 24.76 9.14 20.91 8.5 20.91 11.47"/><polygon class="cls-1" points="7.6 16.13 18.39 16.13 18.39 18.19 6.93 18.19 7.6 16.13"/><polygon class="cls-1" points="13.58 24.95 13.58 38.02 17.81 38.02 16.48 24.95 13.58 24.95"/><polygon class="cls-1" points="2.97 26.79 2.97 29.76 27.96 29.76 27.35 26.79 2.97 26.79"/><path class="cls-1" d="M281.3,404.6s7.59,5,9.83,4.33-1.8,3-1.8,3-2.89.44-9.69-6.34S281.3,404.6,281.3,404.6Z" transform="translate(-262.89 -374.84)"/><path class="cls-1" d="M272.81,404.14s-2.93,7.17-5.7,8.08,8.41-.72,9.26-7.42-1.56-.65-2.56-.65" transform="translate(-262.89 -374.84)"/><polygon class="cls-1" points="16.08 2.97 23.79 2.17 23.79 5.54 16.08 4.61 16.08 2.97"/><polygon class="cls-1" points="11.67 0 16.88 0 17.31 9.14 13.52 9.14 11.67 0"/><polygon class="cls-1" points="26.35 23.76 4.25 24.23 4.25 21.32 26.35 21.32 26.35 23.76"/><polygon class="cls-1" points="37.69 80.59 37.69 92.68 39.8 92.68 39.8 78.23 37.69 77.57 37.69 80.59"/><polygon class="cls-1" points="39.03 81.21 49.86 81.21 49.86 83.73 38.35 83.73 39.03 81.21"/><polygon class="cls-1" points="38.59 77.4 50.11 77.4 50.11 79.92 37.87 79.92 38.59 77.4"/><polygon class="cls-1" points="39.64 85.05 49.92 85.05 49.92 87.15 39 87.15 39.64 85.05"/><polygon class="cls-1" points="39.65 88.81 50.09 88.81 50.09 90.9 39 90.9 39.65 88.81"/><polygon class="cls-1" points="38.97 59.69 42.02 59.12 42.2 65.39 40.1 65.78 38.97 59.69"/><polygon class="cls-1" points="44.27 59.29 47.37 59.29 46.41 65.48 44.27 65.48 44.27 59.29"/><polygon class="cls-1" points="34.02 66.65 36.47 66.65 36.47 67.81 36.47 72.84 34.02 72.84 34.02 66.65"/><polygon class="cls-1" points="40.54 66.65 42.99 66.65 42.99 67.81 42.99 72.84 40.54 72.84 40.54 66.65"/><polygon class="cls-1" points="41.77 67.42 36.47 67.81 36.33 68.97 41.77 68.97 41.77 67.42"/><polygon class="cls-1" points="41.77 71.29 36.47 71.68 36.33 72.84 41.77 72.84 41.77 71.29"/><polygon class="cls-1" points="44.38 66.65 46.83 66.65 46.83 67.81 46.83 72.84 44.38 72.84 44.38 66.65"/><polygon class="cls-1" points="48.93 66.65 51.38 66.65 51.38 67.81 51.38 72.84 48.93 72.84 48.93 66.65"/><polygon class="cls-1" points="50.15 67.42 44.85 67.81 44.71 68.97 50.15 68.97 50.15 67.42"/><polygon class="cls-1" points="50.15 71.29 44.85 71.68 44.71 72.84 50.15 72.84 50.15 71.29"/><path class="cls-1" d="M309.48,436.61c.39.11,4.76-.06,4.76-.06l0,2.24-5.5,0A4.74,4.74,0,0,0,309.48,436.61Z" transform="translate(-262.89 -374.84)"/><polygon class="cls-1" points="34.03 62.01 35.22 64.29 40.95 63.85 41.76 61.7 34.03 62.01"/><polygon class="cls-1" points="56.12 69.44 67.66 69.44 67.66 71.57 65.53 71.57 56.12 71.57 56.12 69.44"/><path class="cls-1" d="M318.48,442.07h4.38s-3.63,7.68-7.39,7.64C315.47,449.71,318.23,445.17,318.48,442.07Z" transform="translate(-262.89 -374.84)"/><path class="cls-1" d="M299.87,448.44h4.52s-3.74,8.51-7.61,8.47C296.77,456.91,299.61,451.89,299.87,448.44Z" transform="translate(-262.89 -374.84)"/><path class="cls-1" d="M329.4,444.37h3.3s-2.73,5.36-5.56,5.34C327.14,449.71,329.22,446.54,329.4,444.37Z" transform="translate(-262.89 -374.84)"/><polygon class="cls-1" points="43.63 78.66 47.37 78.66 47.25 90.13 44.42 90.13 43.63 78.66"/><polygon class="cls-1" points="42.99 74.98 44.11 77.83 46.83 77.83 47.37 74.98 42.99 74.98"/><path class="cls-1" d="M323,446.27s.26,13.49,7.87,15.67l1.44-2.58s-6.78-2.55-6.77-13.67Z" transform="translate(-262.89 -374.84)"/><path class="cls-1" d="M324.25,446.17s1,13.46-6.36,16.25L316.22,460s6.51-3.09,5.46-14.16Z" transform="translate(-262.89 -374.84)"/><path class="cls-2" d="M283.68,416.18a6.58,6.58,0,0,0-6.54,5.89h13.08A6.58,6.58,0,0,0,283.68,416.18Z" transform="translate(-262.89 -374.84)"/><path class="cls-2" d="M283.68,429.33a6.58,6.58,0,0,0,6.54-5.89H277.14A6.58,6.58,0,0,0,283.68,429.33Z" transform="translate(-262.89 -374.84)"/><path class="cls-2" d="M318.6,422.8a6.71,6.71,0,0,0-6-6.68v13.35A6.71,6.71,0,0,0,318.6,422.8Z" transform="translate(-262.89 -374.84)"/><path class="cls-2" d="M305.18,422.8a6.71,6.71,0,0,0,6,6.68V416.13A6.71,6.71,0,0,0,305.18,422.8Z" transform="translate(-262.89 -374.84)"/><rect class="cls-2" x="0.82" y="41.45" width="11.77" height="4.32"/><rect class="cls-2" x="269.82" y="418.75" width="6.92" height="4.39" transform="translate(431.34 -227.17) rotate(90)"/><path class="cls-2" d="M269.59,429.44c3.25,0,5.88-2.25,5.88-5H263.71C263.71,427.19,266.34,429.44,269.59,429.44Z" transform="translate(-262.89 -374.84)"/><polygon class="cls-2" points="57.29 41.66 57.29 54.63 67.85 54.63 57.29 41.66"/><path class="cls-2" d="M325.87,416.3h-5.7v9.92h5.7a5,5,0,0,0,0-9.92Z" transform="translate(-262.89 -374.84)"/><polygon class="cls-2" points="35.03 48.02 29.05 41.46 29.05 54.57 41.01 54.57 41.01 41.46 35.03 48.02"/></svg>